<?xml version="1.0" standalone="no"?>
<!DOCTYPE svg PUBLIC "-//W3C//DTD SVG 1.1//EN" "http://www.w3.org/Graphics/SVG/1.1/DTD/svg11.dtd" >
<!--
2013-9-30: Created.
-->
<svg>
<metadata>
Created by iconfont
</metadata>
<defs>

<font id="iconfont" horiz-adv-x="1024" >
  <font-face
    font-family="iconfont"
    font-weight="500"
    font-stretch="normal"
    units-per-em="1024"
    ascent="896"
    descent="-128"
  />
    <missing-glyph />
    
    <glyph glyph-name="out" unicode="&#58886;" d="M775.6711293 13.592544520000047l-527.33890173 1e-8c-87.24194385 0-158.20723582 72.06063272-158.20723581 160.64835369L90.12499177 495.54519525c0 29.6003518 23.58988797 53.55113818 52.73996153 53.55113818 29.14417062 0 52.72899939-23.95078638 52.7289994-53.55113818l0-321.30513996c0-29.4949498 23.63879498-53.54607816 52.73827487-53.54607814l527.33890173 0c29.09779321 0 52.73490234 24.05112918 52.73490235 53.54607814L828.40603082 495.54519525c0 29.6003518 23.58820212 53.55113818 52.7289994 53.55113818 29.15428903 0 52.73996154-23.95078638 52.73996155-53.55113818l0-321.30513996C933.87583552 85.65317723999999 862.90801394 13.592544520000047 775.6711293 13.592544520000047zM530.64102972 744.36472028c-10.24342163 10.40953574-27.0369668 10.40953574-37.28123135 0l-173.65078756-176.33981222c-10.24426456-10.4036336-6.79718655-18.92857462 7.72557027-18.92857462l52.73068608 0c14.52528644 0 26.3733533-12.03020234 26.3733533-26.7730395l0-107.10480515c0-14.74705343 11.83963513-26.77472534 26.36492156-26.77472534l158.19543073 0c14.52697312 0 26.3733533 12.02767273 26.3733533 26.77472534L617.47232605 522.32329394c0 14.74283716 11.84047806 26.77303948 26.36745117 26.77303949l52.72646979 1e-8c14.52613019 0 17.980797 8.52494182 7.72472736 18.92857462L530.64102972 744.36472028zM617.47232605 308.11705617999996c0-14.74536676-11.79410064-26.77303948-26.3733533-26.77303948-14.57250677 0-26.36407782 12.02767273-26.36407782 26.77303948 0 14.85329837 11.79072812 26.77641202 26.36407782 26.77641203C605.67822458 334.89346820000003 617.47232605 322.97035455 617.47232605 308.11705617999996zM459.26593318 308.11705617999996c0-14.74536676-11.78988518-26.77303948-26.36323491-26.77303948-14.57419345 0-26.36492157 12.02767273-26.36492156 26.77303948 0 14.85329837 11.78988518 26.77641202 26.36492156 26.77641203C447.47604797 334.89346820000003 459.26593318 322.97035455 459.26593318 308.11705617999996zM432.90269827 334.89346820000003l158.19543073 0 0-53.5494515-158.19543073 0 0 53.5494515Z"  horiz-adv-x="1025" />

    
    <glyph glyph-name="in" unicode="&#58888;" d="M775.67534558 14.435763070000007l-527.34396094 0c-87.24110092 0-158.20639288 70.99143173-158.20639288 158.26457455L90.12499177 489.23707553c0 29.16103492 23.58482876 52.75598209 52.72899937 52.75598208 29.15260236 0 52.73996154-23.594948 52.73996157-52.75598208l0-316.53673791c0-29.05731876 23.63879498-52.75260956 52.73743193-52.75260956l527.34396094 0c29.09863696 0 52.73574527 23.6952908 52.73574527 52.75260956L828.41109085 489.23707553c0 29.16103492 23.58398584 52.75598209 52.73743195 52.75598208 29.14417062 0 52.72646978-23.594948 52.72646978-52.75598208l0-316.53673791C933.87499177 85.42719480000005 862.91307315 14.435763070000007 775.67534558 14.435763070000007zM493.35895462 296.86430191c10.24932458-10.25269712 27.0369668-10.25269712 37.28629055 0l173.65331718 173.72161807c10.24763791 10.25522671 6.79465695 18.65031262-7.72472736 18.65031262l-52.7391178 0c-14.51685471 0-26.3657645 11.85059647-26.36576449 26.38094211L617.46895271 621.1274538600001c0 14.52613019-11.83879138 26.37503997-26.36660744 26.37503997l-158.2047062 1e-8c-14.51854056 0-26.36660742-11.84975354-26.36660742-26.37503998l0-105.5094354c0-14.53034564-11.84638018-26.38094211-26.36745117-26.3809421l-52.73743195 0c-14.51769763 0-17.97152152-8.39508591-7.71966815-18.65031263L493.35895462 296.86430191zM406.53187458 726.64026177c0 14.52359976 11.79494439 26.37503997 26.36660742 26.37503999 14.57840973 0 26.36913785-11.85228314 26.36913784-26.37503998 0-14.6340618-11.79072812-26.38178586-26.36913784-26.38178586C418.32766189 700.25763299 406.53187458 712.00535623 406.53187458 726.64026177zM564.73826663 726.64026177c0 14.52359976 11.79578733 26.37503997 26.36492157 26.37503999 14.57672305 0 26.36660742-11.85228314 26.36660742-26.37503998 0-14.6340618-11.78904144-26.38178586-26.36660742-26.38178586C576.53489771 700.25763299 564.73826663 712.00535623 564.73826663 726.64026177zM432.898482 753.01530176l158.2047062 0 0-52.75682584-158.20470621 0 1e-8 52.75682584Z"  horiz-adv-x="1025" />

    
    <glyph glyph-name="qrcode" unicode="&#58884;" d="M746.37499963-37.875L746.37499963 55.87500019000004 840.12499981 55.87500019000004 840.12499981 149.62500036999995 933.875 149.62500036999995 933.875-37.875 746.37499963-37.875ZM840.12499981 337.12499991000004L933.875 337.12499991000004 933.875 243.37499973 840.12499981 243.37499973 840.12499981 337.12499991000004ZM886.99999991 430.87500009L605.75000019 430.87500009C579.87499991 430.87500009 558.87500009 451.87499991 558.87500009 477.75000019L558.87500009 758.99999991C558.87500009 784.87500018 579.87499991 805.875 605.75000019 805.875L886.99999991 805.875C912.87500018 805.875 933.875 784.87500018 933.875 758.99999991L933.875 477.75000019C933.875 451.87499991 912.87500018 430.87500009 886.99999991 430.87500009ZM840.12499981 712.12499981L652.62500027 712.12499981 652.62500027 524.62500027 840.12499981 524.62500027 840.12499981 712.12499981ZM793.24999973 571.50000037L699.50000037 571.50000037 699.50000037 665.24999973 793.24999973 665.24999973 793.24999973 571.50000037ZM418.24999981-37.875L137.00000009-37.875C111.12499982-37.875 90.125-16.87500018000003 90.125 9.000000089999958L90.125 290.24999980999996C90.125 316.12500008999996 111.12499982 337.12499991000004 137.00000009 337.12499991000004L418.24999981 337.12499991000004C444.12500009 337.12499991000004 465.12499991 316.12500008999996 465.12499991 290.24999980999996L465.12499991 9.000000089999958C465.12499991-16.87500018000003 444.12500009-37.875 418.24999981-37.875ZM371.37499973 243.37499973L183.87500019 243.37499973 183.87500019 55.87500019000004 371.37499973 55.87500019000004 371.37499973 243.37499973ZM324.49999963 102.75000026999999L230.75000027 102.75000026999999 230.75000027 196.49999963000005 324.49999963 196.49999963000005 324.49999963 102.75000026999999ZM418.24999981 430.87500009L137.00000009 430.87500009C111.12499982 430.87500009 90.125 451.87499991 90.125 477.75000019L90.125 758.99999991C90.125 784.87500018 111.12499982 805.875 137.00000009 805.875L418.24999981 805.875C444.12500009 805.875 465.12499991 784.87500018 465.12499991 758.99999991L465.12499991 477.75000019C465.12499991 451.87499991 444.12500009 430.87500009 418.24999981 430.87500009ZM371.37499973 712.12499981L183.87500019 712.12499981 183.87500019 524.62500027 371.37499973 524.62500027 371.37499973 712.12499981ZM324.49999963 571.50000037L230.75000027 571.50000037 230.75000027 665.24999973 324.49999963 665.24999973 324.49999963 571.50000037ZM746.37499963 149.62500036999995L558.87500009 149.62500036999995 558.87500009 337.12499991000004 746.37499963 337.12499991000004 746.37499963 149.62500036999995ZM652.62500027-37.875L558.87500009-37.875 558.87500009 55.87500019000004 652.62500027 55.87500019000004 652.62500027-37.875Z"  horiz-adv-x="1024" />

    
    <glyph glyph-name="wechat" unicode="&#59028;" d="M390.63703666 772.3614811C189.65996999 772.3614811 26.54814777 641.7749333300001 26.54814777 481.09036999 26.54814777 389.33996999 78.97694777 308.26951111000005 161.50376334 254.86980778999998L123.6385189 141.27407444999994 245.0014811 214.09185222999997C288.20669667 199.04284444999996 335.78097778 189.81925888 386.26796999 189.81925888 373.64622222 220.40272555 366.36444445 252.928 366.36444445 286.90963001 366.36444445 447.59419221 518.31087445 578.18074112 706.18074112 578.18074112 715.40432555 578.18074112 724.62791111 578.18074112 733.36604445 576.72438557 683.84995555 690.3201189 549.86524445 772.3614811 390.63703666 772.3614811M245.0014811 650.9985189C271.70133333 650.9985189 293.54666667 629.15318557 293.54666667 602.4533333300001 293.54666667 575.7534811 271.70133333 553.90814777 245.0014811 553.90814777 218.30163001 553.90814777 196.45629667 575.7534811 196.45629667 602.4533333300001 196.45629667 629.15318557 218.30163001 650.9985189 245.0014811 650.9985189M487.72740779 650.9985189C514.42725888 650.9985189 536.27259221 629.15318557 536.27259221 602.4533333300001 536.27259221 575.7534811 514.42725888 553.90814777 487.72740779 553.90814777 461.02755555 553.90814777 439.18222222 575.7534811 439.18222222 602.4533333300001 439.18222222 629.15318557 461.02755555 650.9985189 487.72740779 650.9985189M706.18074112 529.6355555499999C545.49617778 529.6355555499999 414.90963001 420.89434112 414.90963001 286.90963001 414.90963001 152.92491889999997 545.49617778 44.18370332999996 706.18074112 44.18370332999996 738.70601443 44.18370332999996 769.77493333 48.06731890000003 798.90204445 56.32000000000005L900.3614811-4.361481099999992 870.26346667 86.41801442999997C946.47940779 130.59413332999998 997.45185223 203.89736333999997 997.45185223 286.90963001 997.45185223 420.89434112 866.86530333 529.6355555499999 706.18074112 529.6355555499999M609.09036999 408.27259221C635.79022222 408.27259221 657.63555555 386.42725888 657.63555555 359.72740779000003 657.63555555 333.02755555 635.79022222 311.18222221999997 609.09036999 311.18222221999997 582.3905189 311.18222221999997 560.54518557 333.02755555 560.54518557 359.72740779000003 560.54518557 386.42725888 582.3905189 408.27259221 609.09036999 408.27259221M803.27111111 408.27259221C829.97096334 408.27259221 851.81629667 386.42725888 851.81629667 359.72740779000003 851.81629667 333.02755555 829.97096334 311.18222221999997 803.27111111 311.18222221999997 776.57125888 311.18222221999997 754.72592555 333.02755555 754.72592555 359.72740779000003 754.72592555 386.42725888 776.57125888 408.27259221 803.27111111 408.27259221Z"  horiz-adv-x="1024" />

    
    <glyph glyph-name="more" unicode="&#59194;" d="M258.84192852 299.71476533c-46.56475722 0-84.36082675 37.79606953-84.36082676 84.36082676s37.79606953 84.36082675 84.36082676 84.36082676 84.36082675-37.79606953 84.36082675-84.36082676S305.40668574 299.71476533 258.84192852 299.71476533zM511.92440791 299.71476533c-46.56475722 0-84.36082675 37.79606953-84.36082676 84.36082676s37.79606953 84.36082675 84.36082676 84.36082676 84.36082675-37.79606953 84.36082676-84.36082676S558.48916513 299.71476533 511.92440791 299.71476533zM765.15807148 299.71476533c-46.56475722 0-84.36082675 37.79606953-84.36082675 84.36082676s37.79606953 84.36082675 84.36082675 84.36082676 84.36082675-37.79606953 84.36082676-84.36082676S811.57164453 299.71476533 765.15807148 299.71476533z"  horiz-adv-x="1024" />

    
    <glyph glyph-name="right" unicode="&#59253;" d="M777.6592608 362.53008320000004c0.5467936 1.05872533 1.43304 1.94497173 1.91194347 3.03855893 9.38724053 19.52494507 6.3138176 43.4169024-10.3083488 59.1197952L392.46498453 781.07328213c-20.54880747 19.422192-52.93992427 18.50108267-72.3969792-2.01469653-19.422192-20.54880747-18.53411093-52.93992427 2.01469654-72.3969792l338.09110293-319.8285536L323.4129888 62.25950293000005c-20.34330133-19.62586347-20.95798613-52.01881493-1.33028693-72.3969792 10.03495253-10.44413013 23.44975147-15.66802987 36.8645504-15.66802986 12.8001152 0 25.60022933 4.77802453 35.5324288 14.33590826l373.38499626 359.86744427c0.71743787 0.71743787 0.98899947 1.70643733 1.70643734 2.4569024 0.5467936 0.51193067 1.12661547 0.88808107 1.6715744 1.43304C774.14363307 355.32818347 775.67942613 359.04931733 777.6592608 362.53008320000004z"  horiz-adv-x="1024" />

    
    <glyph glyph-name="left" unicode="&#59257;" d="M682.63272107-42.66620799999998c-13.10653973 0-26.21491413 4.98353067-36.21500374 14.98362027L270.98499627 347.7501344c-20.00201387 19.96715093-20.00201387 52.39496533 0 72.3969792L646.4177184 795.61469653c20.00201387 20.00201387 52.39496533 20.00201387 72.3969792 0 20.00201387-19.96715093 20.00201387-52.39496533 0-72.3969792l-339.2177184-339.2507456L718.81469653 44.74925440000004c20.00201387-20.00201387 20.00201387-52.39496533 0-72.3969792C708.8476352-37.68267733000005 695.7392608-42.66620799999998 682.63272107-42.66620799999998z"  horiz-adv-x="1024" />

    
    <glyph glyph-name="email" unicode="&#58946;" d="M960.992 155.23199999999997c0-19.712-5.536-37.952-14.432-54.048l-283.84 317.568 280.768 245.632c10.912-17.344 17.504-37.696 17.504-59.68L960.992 155.23199999999997 960.992 155.23199999999997zM511.488 361.12L902.176 702.944c-16.032 8.768-34.08 14.144-53.568 14.144L174.368 717.088c-19.52 0-37.568-5.376-53.536-14.144L511.488 361.12 511.488 361.12zM620.416 381.79200000000003l-90.432-79.168c-5.28-4.608-11.872-6.912-18.496-6.912-6.624 0-13.216 2.304-18.496 6.912l-90.464 79.168L115.104 60.15999999999997c17.216-10.816 37.408-17.28 59.264-17.28l674.24 0c21.824 0 42.048 6.464 59.264 17.28L620.416 381.79200000000003 620.416 381.79200000000003zM79.488 664.4159999999999C68.576 647.104 62.016 626.72 62.016 604.736l0-449.472c0-19.712 5.504-37.952 14.432-54.048l283.808 317.632L79.488 664.4159999999999 79.488 664.4159999999999zM79.488 664.4159999999999"  horiz-adv-x="1024" />

    
    <glyph glyph-name="luckyturning" unicode="&#58909;" d="M344.401376 553.613002l166.475546-167.871335 0 236.455363C445.936887 622.19703 387.133619 595.997322 344.401376 553.613002zM510.889201 149.321096c64.931848 0 123.728976 26.186406 166.462243 68.549236L510.875898 385.741667 510.875898 149.321096 510.889201 149.321096zM343.011726 219.287611l167.865195 166.454056L274.448164 385.741667C274.448164 320.809819 300.64071 262.020878 343.011726 219.287611zM510.875898 385.741667l236.461503 0 0 0.020466c0 65.287959-26.461675 124.400265-69.242014 167.186743L510.875898 385.741667zM510.883061 832.975595c-246.994394 0-447.241091-200.239534-447.241091-447.233927 0-246.99337 200.246697-447.226764 447.241091-447.226764 246.99337 0 447.226764 200.233394 447.226764 447.226764C958.109826 632.736061 757.876432 832.975595 510.883061 832.975595zM510.875898 125.718539c-143.617955 0-260.036431 116.411313-260.036431 260.023128S367.257943 645.771959 510.875898 645.771959c143.611815 0 260.036431-116.425639 260.036431-260.030291C770.918469 242.129852 654.493853 125.718539 510.875898 125.718539z"  horiz-adv-x="1024" />

    
    <glyph glyph-name="list" unicode="&#58960;" d="M111.395066 716.35962l801.208844 0 0-87.866187-801.208844 0 0 87.866187ZM111.395066 427.932582l801.208844 0 0-87.866187-801.208844 0 0 87.866187ZM111.395066 139.506567l801.208844 0 0-87.866187-801.208844 0 0 87.866187Z"  horiz-adv-x="1024" />

    
    <glyph glyph-name="user" unicode="&#58952;" d="M886.99874961 79.49975771000004c0-193.94967656-749.9987499-193.94967656-749.9987499 0 0 193.87467685 167.92472021 350.99941465 374.99937539 350.99941466s374.99937539-157.12473779 374.99937451-350.99941466zM511.9993751 461.4741208c-103.49982773 0-187.4996877 83.39986143-187.4996877 186.22469004A186.82468857 186.82468857 0 0 0 511.9993751 833.99849971c103.49982773 0 187.4996877-83.39986143 187.49968769-186.22468916A186.82468857 186.82468857 0 0 0 511.9993751 461.5491205z"  horiz-adv-x="1024" />

    
    <glyph glyph-name="ask" unicode="&#59022;" d="M535.77223261 102.05825683c-31.79704131 0-62.86827568 9.14499932-92.91870087 13.45307872C321.35310898-37.37960450000003 129.72813067-7.288706540000021 129.72813067-7.288706540000021c135.34203779 63.76316836 132.60069668 169.36776826 108.53481269 183.43782949C132.021575 238.29069082 68.14508398 332.88585527 68.14508398 438.86280292c0 187.12532901 206.63040498 338.82637588 467.62534951 338.82637589 261.01023487 0 420.08178428-151.70194599 420.08178428-338.82637589 0.00179912-187.14781406-159.07154942-336.80454609-420.07998516-336.80454609m-39.79801669 165.41494805c9.2853044-7.67899336 21.78772823-11.50859708 37.49198027-11.50859707 12.33243896 0 22.88858115 3.73246963 31.66932832 11.17312471 8.7690542 7.46583838 13.17426768 16.68188935 13.17426768 27.67063975 0 11.14884141-4.70021309 20.35949589-14.07006036 27.6733371-9.36804815 7.30214912-20.55376494 10.950975-33.55894775 10.950975-13.50884092 0-25.00214854-3.64882588-34.45563867-10.950975-9.45079278-7.31384122-14.17888652-16.52449658-14.17888653-27.6733371 0-10.5273624 4.64445088-19.64448106 13.92795704-27.33516739m123.86401963 327.09293086c-21.10239229 15.05938974-49.89367178 22.57019737-86.3747376 22.57019824-35.96661474 0-68.0550583-7.51080761-96.24644472-22.57019824v-70.02832061c26.84859697 21.38390156 55.88990684 32.07855058 87.12932607 32.07855059 13.33795693 0 24.23137148-3.42487793 32.67934365-10.27733115 8.44527393-6.8524541 12.66791133-15.63320039 12.66791044-26.31705733 0-9.78716425-2.96438994-18.90518203-8.86439003-27.34955683-5.91618867-8.41919151-17.22602109-18.94655391-33.95198057-31.61626436-27.01588359-20.31632578-40.52202627-43.20670606-40.52202539-68.67114082 0-10.37536523 2.02722539-20.47281943 6.08257617-30.24289599h68.64325928c-4.559908 7.66190567-6.83896289 15.57473994-6.83896289 23.69803271 0 8.28068555 2.11086914 16.11167607 6.3362039 23.49297246 4.20824708 7.38399375 15.18350537 17.68920644 32.91678282 30.94441963 22.12050234 16.12336816 37.3345875 30.95880997 45.59638535 44.52341309 8.2779873 13.53312422 12.41878008 28.66356651 12.41878008 45.38862597 0 27.8514167-10.55794131 49.31626377-31.67202656 64.37655264"  horiz-adv-x="1024" />

    
    <glyph glyph-name="activity" unicode="&#58963;" d="M740.54 630.5899999999999c0-0.39 0.08-0.78 0.13-1.16s0.13-0.81 0.21-1.21v-0.14a21.41 21.41 0 0 1 6-11.11l0.14-0.13 0.62-0.59a22 22 0 0 1 14.93-5.8h143.26c19.71 0 29.59 23.84 15.65 37.77l-56 56-87.25 87.25a22.08 22.08 0 0 1-30.58 0.73l-0.62-0.59-0.13-0.13a21.41 21.41 0 0 1-6-11.11v-0.14c-0.08-0.4-0.15-0.8-0.21-1.21s-0.1-0.77-0.13-1.16v-0.43c0-0.52-0.06-1-0.06-1.56v-143.3c0-0.52 0-1 0.06-1.56-0.04-0.13-0.03-0.28-0.02-0.42zM880.57 535.0699999999999H709.85a47.43 47.43 0 0 0-47.43 47.43V750.5699999999999A47.57 47.57 0 0 1 615 798H209.41A111.41 111.41 0 0 1 98 686.59v-611.2A107.39 107.39 0 0 1 205.39-32h611.2A111.41 111.41 0 0 1 928 79.40999999999997V487.64a47.43 47.43 0 0 1-47.43 47.43z m-155.7-133.84L656.11 334a33.9 33.9 0 0 1-9.72-29.95l16.18-94.84c4.73-27.72-24.4-48.82-49.26-35.69l-84.54 44.64a33.91 33.91 0 0 1-31.65 0l-84.57-44.59c-24.87-13.11-54 8-49.24 35.72l16.24 94.83a33.91 33.91 0 0 1-9.7 30l-68.73 67.27c-20.06 19.63-8.94 53.75 18.84 57.79l94.8 13.79a33.91 33.91 0 0 1 25.54 18.58l42.33 86c12.43 25.26 48.44 25.25 60.86 0l42.27-86a33.91 33.91 0 0 1 25.53-18.6L706.07 459c27.78-4 38.88-38.15 18.8-57.77z"  horiz-adv-x="1024" />

    
    <glyph glyph-name="gift" unicode="&#58887;" d="M310.62395449 638.4938917h0.23387705l402.95690695 0.3501238c4.32465579 0 8.53306482 2.26542819 10.9299621 6.13755108 23.31577685 37.64734066 17.61968583 85.7541211-13.6493056 117.14766393-37.08409742 37.07579392-97.36910848 37.07579392-134.42691186 0l-64.61243506-64.71484302-64.61105152 64.60551509c-37.08409742 37.07579392-97.37049315 37.07579392-134.42414478 0-31.53193074-31.51117312-36.96923421-79.85321415-13.44449081-117.5060901 2.39689728-3.85690169 6.72155307-6.01992078 11.04759353-6.01992078z m537.17761934-48.86100082H176.16936391c-39.33430215 0-71.30354233-30.59642141-71.30354233-68.23684323 0-37.65149241 31.96924018-68.24929735 71.30354233-68.24929736H847.80019029c39.36197973 0 71.33260459 30.59780494 71.33260459 68.24929736 0 37.64042069-31.96924018 68.23684323-71.33122105 68.23684323z m45.29471602-68.23684323c0 0.11763029 0 0.11763029 0 0 0 0.11763029 0 0.11763029 0 0zM465.4175744 404.40338091H185.49124665v-326.368289c0-55.14524445 44.82972899-99.97082169 99.88225252-99.97082169h197.55028252V404.40338091h-17.50620729z m349.74080455 0H539.81826275v-426.34049422h198.92310016c55.05252352 0 99.97220523 44.82696192 99.97220637 99.97082168V404.40338091h-23.55519033z"  horiz-adv-x="1024" />

    
    <glyph glyph-name="exchange" unicode="&#58889;" d="M392.04893877 658.70247501V794.99219797s0.38558551 7.23198889-13.83852996 10.35923043c-11.92220727 2.61785632-23.34276645-5.43430866-23.34276645-5.43430782L114.45172067 629.43922688S91.97039661 617.94387222 91.97039661 595.2446076900001c0-22.17053403 15.93797278-31.20407254 15.93797361-31.20407253l241.81383086-165.94242518s15.32413064-5.60195453 28.37859357-2.838375c14.09515686 2.98538772 13.94814413 13.29819378 13.94814413 13.2981938v127.56439461h235.25629486s185.48865527-24.91605945 185.48865527-93.67927596c0 0-3.11821491 216.25942759-191.46845818 216.25942758H392.04893877z m240.60807012-549.64664401v-136.41868076s2.49792517-8.30879187 17.6299074-10.29475195c10.10131403-1.32956131 16.40222315 3.8004049 18.60741238 5.36467044 5.0525917 3.58633384 240.63515085 170.63393308 240.63515167 170.63393308s22.49937818 11.50438211 22.49937818 34.22427977c0 22.191168-15.95215833 31.23244363-15.95215833 31.23244364L674.04363935 369.89232118999996s-10.06907437 6.09715503-23.75543354 2.52500593c-16.91031968-4.40908896-17.63119693-12.99772073-17.63119693-12.99772074v-127.6740096H396.20784844S210.55283682 256.67971033000003 210.55283682 325.50740698000004c0 0 3.11821491-216.45286551 191.64255166-216.45286551l230.4616204 0.00128953z"  horiz-adv-x="1024" />

    
    <glyph glyph-name="add" unicode="&#58902;" d="M869.10580923 445.26815314h-294.08713686V739.35529084c0 35.01037381-28.00829856 63.01867237-63.01867237 63.01867154s-63.01867237-28.00829856-63.01867237-63.01867154v-294.08713771H154.89419077c-35.01037381 0-63.01867237-28.00829856-63.01867237-63.01867153s28.00829856-63.01867237 63.01867237-63.01867237h294.08713686v-294.08713686c0-35.01037381 28.00829856-63.01867237 63.01867237-63.01867237s63.01867237 28.00829856 63.01867237 63.01867237v294.08713686h294.08713686c35.01037381 0 63.01867237 28.00829856 63.01867237 63.01867237s-28.00829856 63.01867237-63.01867237 63.01867153z"  horiz-adv-x="1024" />

    
    <glyph glyph-name="statistics" unicode="&#59015;" d="M478.31428584 754.8c-218.7 0-394.54285693-173.57142832-394.54285693-389.99999971 0-214.2 175.84285693-389.99999971 394.54285693-390.00000058 119.48571387 0 227.7 51.81428584 299.82857168 135.21428613l-299.82857168 254.74285723v389.9999997z m67.62857168 78.85714307v-390.00000059h394.4999997c0 214.2-175.84285693 389.99999971-394.4999997 390.00000059z m297.55714219-698.8285714a380.44285752 380.44285752 0 0 1 96.94285751 254.74285724h-394.4999997l297.55714219-254.74285724z"  horiz-adv-x="1024" />

    
    <glyph glyph-name="exam" unicode="&#58881;" d="M780.38 834H249.695C146.15 834 62 750.435 62 641.13v-514.26C62 17.565000000000055 146.15-66 249.65-66h349.56c64.71 0 122.94 77.13 200.61 154.305 77.67 77.13 161.82 147.87 161.82 212.13V641.13C968.075 750.435 883.925 834 780.38 834zM191.465 126.87l58.275 199.305 148.86-147.87-207.135-51.435z m258.885 90L282.05 384l323.55 321.435 168.3-167.13-323.55-321.435z m194.175-199.305v237.87h232.965l-232.965-237.87z"  horiz-adv-x="1024" />

    
    <glyph glyph-name="kakaotalk" unicode="&#58880;" d="M511.37214894 798.32603559c-228.79151597 0-414.2250616-147.71976217-414.22506161-329.92084574 0-115.83657908 74.98483485-217.66625406 188.37214752-276.52761474l-31.30452448-162.23541981 179.14079509 114.75952324a517.49167408 517.49167408 0 0 1 78.01664348-5.92639621c228.77857058 0 414.24577422 147.72105671 414.24577423 329.93120205-0.00129454 182.19978903-185.46720364 329.9195512-414.24577423 329.91955121z m-209.99999842-427.5251478c0-4.57878187-1.8602515-9.07341875-5.14061148-12.32788797a17.47108851 17.47108851 0 0 0-12.30976443-5.12637155h-3.91338919a17.46332128 17.46332128 0 0 0-12.32659342 5.1483787 17.44908137 17.44908137 0 0 0-5.12637155 12.30588082v144.22450883h-42.44790993a18.60251497 18.60251497 0 0 0-9.75822949 2.74701022c-2.80008628 1.75668844-4.98785597 4.194304-6.325114 7.07465165-0.86734064 1.91203303-1.36962149 4.04413757-1.36962148 6.17235848 0 2.12304276 0.50228085 4.2551473 1.38515594 6.21766732a16.17784478 16.17784478 0 0 0 3.74121561 5.04869926c3.29330537 3.04993217 7.67920103 4.72506469 12.32659342 4.72506468h123.25298884c3.47842434 0 6.86493645-0.9540747 9.74140049-2.73924298 2.81691529-1.73985943 5.0331648-4.20207123 6.35747745-7.05652811a15.24966083 15.24966083 0 0 0 1.35408704-6.19436564c0-2.11009739-0.47639008-4.24349645-1.35408704-6.17235847a16.65552941 16.65552941 0 0 0-3.73992107-5.09918626c-3.33990875-3.03957586-7.69473549-4.72506469-12.35895687-4.72506469h-41.98964338v-144.22450883z m206.47626525-8.95820486c-1.83047712-2.88682035-4.38589566-5.15614594-7.4953766-6.56330903l-3.61823447-1.62464553c-5.21698924-2.37806681-11.55763769-1.98452717-16.51313019 1.13919368a17.25360608 17.25360608 0 0 0-6.57237081 7.50314382L459.3511285 393.6572555h-80.52934227l-14.206263-31.18283788a17.07107618 17.07107618 0 0 0-6.55683633-7.47984213c-4.95678704-3.14184438-11.34274434-3.54703486-16.54549365-1.16249537l-3.58587102 1.63888545a17.11638503 17.11638503 0 0 0-7.4992602 6.5723708 17.61219318 17.61219318 0 0 0-2.69263961 9.36468986c0 2.49328071 0.52169893 4.92571813 1.55862408 7.17692017l70.02934233 153.52835541 0.52299347 1.45376648a17.9578349 17.9578349 0 0 0 2.13857722 4.98785596c0.29386018 0.46215017 0.63173467 0.91523856 1.37091603 1.90944394a16.98952027 16.98952027 0 0 0 5.34514854 5.30113423 17.65491295 17.65491295 0 0 0 9.353039 2.70170137c0.7236469 0 1.40457403-0.05437061 2.87905312-0.20065342 3.078412-0.12945383 6.05196642-1.05375415 8.65269381-2.68487239 1.49260263-0.93983478 2.82856613-2.08420661 4.41696457-3.93151273 0.89323141-0.92430032 1.6777216-1.90167671 2.3236962-2.94766365a18.09117235 18.09117235 0 0 0 2.27838736-5.5173221l74.27672242-163.31894835-5.0331648-8.02225367z m148.55991751 0.40648504a15.5189248 15.5189248 0 0 0-3.31401798-4.23314015c-3.30883982-3.00073971-7.69473549-4.66939955-12.34342241-4.66939955h-101.66009049c-0.61361115 0-1.2142769 0.05437061-1.8304771 0.09191221-2.84798419 0.30162741-5.60276163 1.19356429-7.94199231 2.63309085-2.47515717 1.52237701-4.51017134 3.62470717-5.86425836 6.07915172l-1.77092836 2.8544569V529.5760067900001c0 4.5761928 1.87837503 9.07730237 5.14190602 12.3252989a17.42448514 17.42448514 0 0 0 12.31105896 5.10954254h3.97164342c4.55677472 0 9.03717168-1.85507333 12.28516819-5.13284423 3.24799653-3.22469484 5.10954256-7.72580441 5.10954256-12.30199721v-144.68148084h80.24842747c3.47842434 0 6.86493645-0.94242386 9.72716056-2.68616692a19.0737269 19.0737269 0 0 0 3.82147698-3.1729133l6.95555414-7.79700401-4.84675129-8.98927375z m162.7765368 3.04863763a17.10991234 17.10991234 0 0 0-5.30890145-6.31087408l-3.15478977-2.33146343c-5.07976818-3.73215383-12.34471696-4.32375783-18.06787065-1.53791147a17.7312907 17.7312907 0 0 0-6.33029216 5.31666868l-54.77579788 74.81913395-23.02595223-24.01368494v-40.43878652a17.48921205 17.48921205 0 0 0-5.14061149-12.32788797 17.47238305 17.47238305 0 0 0-12.31105895-5.12637155h-3.92633458a17.47626667 17.47626667 0 0 0-12.32529888 5.13413878 18.17661187 18.17661187 0 0 0-2.94119096 3.87843666l-2.18647513 3.95610896V529.5760067900001c0 4.5761928 1.86413511 9.07730237 5.12637155 12.3252989a17.49697929 17.49697929 0 0 0 12.32659342 5.10954254h3.98717787c4.54124027 0 9.00351369-1.85507333 12.28257913-5.13284423 3.24670198-3.22469484 5.1108371-7.72580441 5.1108371-12.30199721v-62.22586564l71.35106591 74.39711448a17.12674133 17.12674133 0 0 0 5.8487239 4.00012325c6.1594131 2.55671309 13.83990866 1.25570213 18.7966957-3.47712979l2.8609296-2.74830475a17.35458007 17.35458007 0 0 0 4.01306863-5.83189492c0.86734064-2.12304276 1.30748365-4.42214274 1.30748366-6.78338053 0.03495253-4.51793857-1.71914683-8.78732578-4.8130933-12.03920594l-49.07076771-51.1640361 58.85877158-80.35975775c2.13987177-2.92047835 3.3554432-6.56330903 3.3243743-10.25015404 0-2.70170137-0.63173467-5.38786829-1.81623721-7.79570946zM393.24423712 425.20385865h51.74787286l-25.89205996 56.69041998z"  horiz-adv-x="1024" />

    
    <glyph glyph-name="sign" unicode="&#58910;" d="M876.28571386-66H190.57142832a128.57142832 128.57142832 0 0 0-128.57142832 128.57142832V619.71428555a128.57142832 128.57142832 0 0 0 128.57142832 128.57142832h42.85714306v-85.71428525a42.85714307 42.85714307 0 0 1 42.85714307-42.85714307h85.71428526a42.85714307 42.85714307 0 0 1 42.85714306 42.85714307V748.28571386h257.14285752v-85.71428524a42.85714307 42.85714307 0 0 1 42.85714219-42.85714307h85.71428614a42.85714307 42.85714307 0 0 1 42.85714306 42.85714307V748.28571386h42.85714219a128.57142832 128.57142832 0 0 0 128.5714292-128.57142831v-557.14285723a128.57142832 128.57142832 0 0 0-128.5714292-128.57142832z m42.85714307 600.00000029H147.71428614v-514.28571416h771.42857079V534.00000029z m-42.85714307-471.42857197H190.57142832V491.14285722h685.71428555v-428.57142889z m-182.7 332.18571445a36.17142891 36.17142891 0 0 1-51.08571386 1e-8l-167.87142862-161.87142833-51.08571386 49.28571387a28.84285722 28.84285722 0 0 1-25.71428584 10.54285752 33.72857138 33.72857138 0 0 1-25.71428584-10.54285752 33.17142833 33.17142833 0 0 1 0-49.24285664l76.97142861-73.92857168a36.17142891 36.17142891 0 0 1 51.08571387 0l193.41428554 186.42857168a33.17142833 33.17142833 0 0 1 0 49.3285711zM319.14285752 834a42.85714307 42.85714307 0 0 0 42.85714219-42.85714307v-85.71428525a42.85714307 42.85714307 0 0 0-85.71428526 0V791.14285693a42.85714307 42.85714307 0 0 0 42.85714307 42.85714307z m428.57142803 0a42.85714307 42.85714307 0 0 0 42.85714307-42.85714307v-85.71428525a42.85714307 42.85714307 0 0 0-85.71428614 0V791.14285693a42.85714307 42.85714307 0 0 0 42.85714307 42.85714307z"  horiz-adv-x="1072" />

    
    <glyph glyph-name="article" unicode="&#58901;" d="M754.20000019 576.3000002900001a118.8500001 118.8500001 0 0 0-118.7499999 118.7499999V831.8000001H208.40000029c-39.94999981 0-72.29999971-32.3499999-72.30000058-72.29999971v-750.2500002c0-39.89999971 32.3499999-72.20000039 72.30000058-72.20000039h607.29999961c39.89999971 0 72.24999961 32.29999981 72.25000049 72.20000039V576.3000002900001h-133.7500002z m14.4500001-478.35H255.29999961v48.44999971h513.35000068v-48.44999971z m0 154.99999952H255.29999961v48.40000048h513.35000068v-48.40000048z m0 154.95000029H255.29999961v48.39999961h513.35000068v-48.39999961z m0 0M681.89999961 831.8000001v-136.7499999c0-39.89999971 32.3499999-72.20000039 72.30000059-72.20000039h133.75000019L681.89999961 831.8000001z m0 0"  horiz-adv-x="1024" />

    
    <glyph glyph-name="password" unicode="&#59249;" d="M618.66666688 490.66666688V597.3333337500001a106.66666688 106.66666688 0 1 1-213.33333376 0v-106.66666688h213.33333375zM298.66666625 490.66666688V597.3333337500001a213.33333375 213.33333375 0 1 0 426.6666675 0v-106.66666688h106.66666594a53.33333344 53.33333344 0 0 0 53.33333344-53.33333343v-426.66666657a53.33333344 53.33333344 0 0 0-53.33333344-53.33333343H192.00000031a53.33333344 53.33333344 0 0 0-53.33333344 53.33333344V437.33333344a53.33333344 53.33333344 0 0 0 53.33333344 53.33333344h106.66666594z"  horiz-adv-x="1024" />

    
    <glyph glyph-name="bitcoin" unicode="&#58986;" d="M1008 384c0-273.934-222.066-496-496-496S16 110.066 16 384 238.066 880 512 880s496-222.066 496-496z m-283.302 70.66c9.874 65.998-40.382 101.478-109.1 125.146l22.292 89.404-54.426 13.562-21.702-87.048c-14.308 3.566-29.004 6.928-43.606 10.26l21.858 87.62-54.396 13.562-22.306-89.372c-11.844 2.698-23.47 5.364-34.754 8.168l0.062 0.28-75.06 18.74-14.478-58.124s40.382-9.254 39.53-9.826c22.044-5.502 26.028-20.088 25.36-31.65l-25.392-101.85c1.52-0.388 3.488-0.946 5.658-1.814-1.814 0.45-3.752 0.946-5.752 1.426l-35.592-142.676c-2.698-6.696-9.534-16.74-24.942-12.928 0.542-0.79-39.56 9.874-39.56 9.874l-27.02-62.294 70.828-17.654c13.176-3.302 26.09-6.758 38.8-10.012l-22.524-90.426 54.364-13.562 22.306 89.466a2076.418 2076.418 0 0 1 43.374-11.254l-22.23-89.046 54.426-13.562 22.524 90.256c92.808-17.562 162.598-10.478 191.972 73.454 23.672 67.58-1.178 106.562-50.008 131.982 35.56 8.196 62.348 31.584 69.494 79.898z m-124.354-174.358c-16.82-67.58-130.616-31.046-167.51-21.886l29.888 119.798c36.892-9.206 155.2-27.434 137.622-97.912z m16.834 175.334c-15.346-61.472-110.062-30.24-140.786-22.584l27.096 108.654c30.726-7.656 129.672-21.946 113.69-86.07z"  horiz-adv-x="1024" />

    
    <glyph glyph-name="error" unicode="&#58954;" d="M512 805.875C279.96875 805.875 90.125 616.03125 90.125 384s189.84375-421.875 421.875-421.875 421.875 189.84375 421.875 421.875S744.03125 805.875 512 805.875z m219.375-582.1875l-59.0625-59.0625-160.3125 160.3125-160.3125-160.3125-59.0625 59.0625 160.3125 160.3125-160.3125 160.3125 59.0625 59.0625 160.3125-160.3125 160.3125 160.3125 59.0625-59.0625-160.3125-160.3125 160.3125-160.3125z"  horiz-adv-x="1024" />

    
    <glyph glyph-name="success" unicode="&#58900;" d="M512 805.875C278.97998047 805.875 90.125 617.02001953 90.125 384s188.85498047-421.875 421.875-421.875 421.875 188.85498047 421.875 421.875S745.02001953 805.875 512 805.875z m262.84790039-318.30139161L479.61779785 202.89038086000005c-3.95507813-3.95507813-8.32214356-7.00378418-13.10119629-9.22851563-18.53942872-13.26599122-44.49462891-11.53564453-61.13891601 5.10864258L278.65039062 325.49780273c-18.53942872 18.53942872-18.53942872 48.61450195 1e-8 67.15393067s48.61450195 18.53942872 67.15393066-1e-8L440.97338867 297.48266602l266.80297852 257.24487304c18.53942872 18.53942872 48.61450195 18.53942872 67.15393067 0 18.45703125-18.62182617 18.45703125-48.61450195-0.08239747-67.15393067z"  horiz-adv-x="1024" />

    
    <glyph glyph-name="logout" unicode="&#58953;" d="M917 384L647 609v-135H332v-180h315V159l270 225zM197 699h360V789H197c-49.5 0-90-40.5-90-90v-630c0-49.5 40.5-90 90-90h360V69H197V699z"  horiz-adv-x="1024" />

    
    <glyph glyph-name="history" unicode="&#58918;" d="M741.078125 351.9375c-107.578125 0-194.90625-87.328125-194.90625-194.0625 0-107.15625 87.328125-194.0625 194.90625-194.0625 107.578125 0 194.90625 86.90625 194.90625 194.0625s-87.328125 194.0625-194.90625 194.0625z m80.15625-255.65625h-95.765625c-16.875 0-30.796875 13.921875-30.796875 30.796875v98.71875c0 16.875 13.921875 30.796875 30.796875 30.796875s30.796875-13.921875 30.796875-30.796875v-67.921875h64.96875c16.875 0 30.796875-13.921875 30.796875-30.796875 0-17.296875-13.921875-30.796875-30.796875-30.796875zM479.9375 162.09375c0 135.421875 109.6875 245.109375 245.109375 245.109375 21.09375 0 41.765625-2.53125 61.171875-7.59375v316.40625c0 46.40625-37.96875 84.375-84.375 84.375H176.609375c-46.40625 0-84.375-37.96875-84.375-84.375v-640.828125c0-46.40625 37.96875-84.375 84.375-84.375h372.9375c-43.03125 44.296875-69.609375 104.625-69.609375 171.28125z m-256.921875 493.59375h404.578125c16.03125 0 29.109375-16.453125 29.109375-37.125s-13.078125-37.125-29.109375-37.125H223.015625c-16.03125 0-29.109375 16.453125-29.109375 37.125s13.078125 37.125 29.109375 37.125z m0-192.375h270.84375c16.03125 0 29.109375-16.453125 29.109375-37.125s-13.078125-37.125-29.109375-37.125H223.015625c-16.03125 0-29.109375 16.453125-29.109375 37.125s13.078125 37.125 29.109375 37.125z m174.65625-266.203125H223.015625c-16.03125 0-29.109375 16.453125-29.109375 37.125 0 20.25 13.078125 37.125 29.109375 37.125H398.09375c16.03125 0 29.109375-16.453125 29.109375-37.125-0.421875-20.671875-13.5-37.125-29.53125-37.125z"  horiz-adv-x="1024" />

    
    <glyph glyph-name="chat" unicode="&#59343;" d="M512 764.76923057C281.80769258 764.76923057 98.34615371 595.1538462799999 98.34615371 385.73076943c0-65.76923057 19.03846113-128.07692315 50.19230743-183.46153886 5.19230742-8.65384628 6.92307685-19.03846113 3.46153886-29.42307686l-53.65384629-147.11538428c-5.19230742-13.84615371 8.65384628-25.96153887 22.5-22.5l148.84615371 57.11538429c8.65384628 3.46153886 19.03846113 1.73076943 29.42307685-3.461538 62.30769258-34.61538427 136.73076943-55.38461573 216.3461546-55.38461572C742.19230742 3.2307694300000094 927.38461573 171.11538427000005 927.38461573 382.26923057 925.65384629 595.1538462799999 740.46153887 764.76923057 512 764.76923057zM304.30769258 314.76923057c-38.07692315 0-69.23076943 31.15384629-69.23076943 69.23076943s31.15384629 69.23076943 69.23076943 69.23076943 69.23076943-31.15384629 69.23076856-69.23076943-31.15384629-69.23076943-69.23076856-69.23076943z m207.69230742 0c-38.07692315 0-69.23076943 31.15384629-69.23076943 69.23076943s31.15384629 69.23076943 69.23076943 69.23076943 69.23076943-31.15384629 69.23076943-69.23076943-31.15384629-69.23076943-69.23076943-69.23076943z m207.69230742 0c-38.07692315 0-69.23076943 31.15384629-69.23076856 69.23076943s31.15384629 69.23076943 69.23076856 69.23076943 69.23076943-31.15384629 69.23076943-69.23076943-31.15384629-69.23076943-69.23076943-69.23076943z"  horiz-adv-x="1024" />

    
    <glyph glyph-name="setting" unicode="&#60717;" d="M651.08992 384.00512c0 38.38976-13.57824 71.17824-40.74496 98.34496-27.16672 27.1616-59.9552 40.75008-98.33984 40.75008-38.38976 0-71.17824-13.58336-98.35008-40.75008-27.1616-27.16672-40.75008-59.9552-40.75008-98.34496s13.58336-71.18336 40.75008-98.33984c27.17184-27.16672 59.95008-40.74496 98.35008-40.74496s71.18336 13.57824 98.33984 40.74496c27.16672 27.15648 40.74496 59.95008 40.74496 98.33984z m278.1952 59.21792v-120.62208c0-4.33664-1.44384-8.50432-4.352-12.48768-2.88768-3.98336-6.52288-6.33856-10.85952-7.08096l-100.51584-15.2064c-6.89152-19.5584-13.952-36.03968-21.19168-49.4336 12.66688-18.11968 32.05632-43.1104 58.13248-74.9824 3.61984-4.34688 5.43232-8.87296 5.43232-13.5936 0-4.69504-1.62816-8.86272-4.87936-12.48256-9.78432-13.40928-27.70944-32.96768-53.79584-58.68032-26.07616-25.728-43.09504-38.58944-51.06688-38.58944-4.352 0-9.0624 1.62816-14.13632 4.8896l-74.97728 58.68032a310.65088 310.65088 0 0 0-49.43872-20.64384c-5.8112-49.26464-11.0592-82.93888-15.75936-101.05856-2.5344-10.14272-9.05728-15.21152-19.57376-15.21152H451.69152c-5.06368 0-9.51296 1.54112-13.312 4.61824-3.79904 3.08224-5.88288 6.9632-6.24128 11.68384L416.9216 82.9952c-17.7408 5.80608-34.048 12.50304-48.90112 20.10624l-76.60544-58.1376c-3.62496-3.25632-8.14592-4.87936-13.58336-4.87936-5.06368 0-9.59488 1.98656-13.57824 5.96992-45.6448 41.30816-75.52512 71.72096-89.64608 91.28448-2.53952 3.61984-3.80928 7.78752-3.80928 12.48768 0 4.35712 1.45408 8.52992 4.34176 12.51328 5.44256 7.59296 14.67392 19.65056 27.70944 36.1216 13.04064 16.47616 22.81984 29.25056 29.34272 38.2976-9.7792 18.10944-17.2032 36.0448-22.28224 53.79072l-99.42528 14.6688a17.24416 17.24416 0 0 0-11.41248 6.77888 20.64896 20.64896 0 0 0-4.352 12.77952V445.39392c0 4.34688 1.44896 8.51456 4.352 12.49792 2.88768 3.98848 6.33856 6.33856 10.32704 7.0656l101.06368 15.21152c5.05856 16.65536 12.12928 33.32608 21.18656 49.98656-14.4896 20.64384-33.8688 45.63968-58.14272 74.97728-3.61984 4.34176-5.4272 8.69376-5.4272 13.04064 0 3.61984 1.62304 7.78752 4.8896 12.4928 9.41056 13.04064 27.24864 32.50688 53.51424 58.40896 26.2656 25.90208 43.37664 38.84032 51.34848 38.84032 4.7104 0 9.4208-1.80736 14.13632-5.4272L366.9504 664.36096a309.1456 309.1456 0 0 0 49.44384 20.63872c5.79584 49.25952 11.04896 82.94912 15.75936 101.06368 2.5344 10.14272 9.05216 15.21664 19.56352 15.21664h120.61696c5.0688 0 9.51296-1.536 13.32224-4.61824 3.79904-3.08224 5.87776-6.97344 6.25152-11.68896l15.20128-99.968c17.75616-5.79072 34.05312-12.4928 48.90624-20.10112l77.16352 58.13248c3.25632 3.26144 7.58784 4.8896 13.0304 4.8896 4.70528 0 9.22624-1.80736 13.57824-5.43232 46.73024-43.1104 76.61568-73.89184 89.6512-92.37504 2.5344-2.8928 3.79392-6.8864 3.79392-11.94496 0-4.352-1.43872-8.51456-4.33152-12.49792-5.44256-7.6032-14.67392-19.65056-27.70944-36.1216-13.03552-16.48128-22.81472-29.25056-29.33248-38.30272 9.40544-18.10944 16.82944-35.85536 22.26688-53.248l99.4304-15.2064c4.7104-0.72704 8.51968-2.99008 11.41248-6.79424 2.87232-3.80928 4.31616-8.064 4.31616-12.77952z"  horiz-adv-x="1024" />

    
    <glyph glyph-name="game" unicode="&#58893;" d="M1002.01984 395.83744c-27.85792 251.89888-143.03744 341.64736-241.53088 341.64736-35.49696 0-59.83232-14.60224-85.59616-30.06976-35.51744-21.30944-75.77088-45.4656-162.8928-45.4656s-127.38048 24.16128-162.89792 45.4656c-25.76384 15.46752-50.0992 30.06976-85.59104 30.06976-98.49856 0-213.67296-89.74848-241.536-341.64736-20.21376-182.85056-9.8816-290.0736 32.53248-337.43872 16.56832-18.49344 37.89824-27.87328 63.40608-27.87328 65.49504 0 102.84032 39.15776 146.09408 84.50048 15.31392 16.0512 31.15008 32.66048 49.64864 49.16736 48.43008 43.22304 97.17248 49.17248 142.62784 49.17248 8.15104 0 16.05632-0.18432 23.67488-0.36864 7.30624-0.1792 14.35648-0.34304 21.0944-0.34304h21.888c6.74304 0 13.78816 0.16384 21.10464 0.34304 7.60832 0.18432 15.5136 0.36864 23.65952 0.36864 45.46048 0 94.19776-5.94944 142.62784-49.17248 18.49856-16.50688 34.33472-33.11616 49.64864-49.16736 43.24864-45.3376 80.59904-84.50048 146.08896-84.50048 25.50784 0 46.84288 9.37984 63.4112 27.87328 42.42432 47.36 52.75136 154.58816 32.5376 337.43872zM387.0208 401.65376H306.37568v-80.63488a32.256 32.256 0 0 0-64.512 0V401.65376H161.23392a32.256 32.256 0 0 0 0 64.512h80.62976v80.64a32.256 32.256 0 1 0 64.512 0v-80.64H387.0208a32.256 32.256 0 0 0 0-64.512z m376.29952 177.40288c26.72128 0 48.384-21.65248 48.384-48.384s-21.66272-48.384-48.384-48.384-48.37888 21.65248-48.37888 48.384 21.6576 48.384 48.37888 48.384z m-96.768-193.53088c-26.72128 0-48.37888 21.65248-48.37888 48.384s21.6576 48.384 48.37888 48.384 48.37888-21.6576 48.37888-48.384a48.384 48.384 0 0 0-48.37888-48.384z m96.768-96.768c-26.72128 0-48.37888 21.6576-48.37888 48.384s21.6576 48.384 48.37888 48.384 48.384-21.6576 48.384-48.384-21.66272-48.384-48.384-48.384z m96.75776 96.768c-26.72128 0-48.37888 21.65248-48.37888 48.384s21.6576 48.384 48.37888 48.384 48.37888-21.6576 48.37888-48.384a48.37376 48.37376 0 0 0-48.37888-48.384z"  horiz-adv-x="1024" />

    
    <glyph glyph-name="invite" unicode="&#59424;" d="M328.9 480c44.1-43 103.7-63.5 164.8-57.1 15.6 1.6 30.8 5 45.6 10.2 87.1 30.4 144.8 116 136.9 210.7-1.3 16.1-4.5 31.7-9.5 47C646 753.4 596.6 802.2 533.9 822.1c-15.8 5-31.9 7.9-48.4 9.1-1.1-0.2-2.3 0-3.4 0-1-0.1-2.1-0.2-3 0.4h-14.3c-0.9-0.7-2-0.5-3-0.4h-3.4c-9.9-0.8-19.7-2-29.4-4.1-40.3-8.8-75-27.8-103.7-57.4-34.9-36-54.1-79.2-57.8-129.2-1.4-18.1-0.2-36.2 3.5-54 8.3-41.3 27.6-76.9 57.9-106.5z m151.8-488.1c12.6 73 17.4 101.2 19.3 112.3-18.7 18.3-82.7 80.7-82.7 80.7l-0.7 0.7c-11.8 12.1-18.3 28.1-18.3 45 0 29.9 20.3 55.6 49.4 62.7 2.6 0.7 5.6 1.1 8.7 1.1 34.4 5.3 90.4 13.4 110.9 16.4 7 14.1 28 56.6 40.6 82.1-0.6 0.2-1.1 0.4-1.7 0.5-13 3.8-26.1 5.9-39.7 5.8-62.1-0.1-124.3 0-186.4 0-4.5 0-9 0-13.5-0.4-8.4-0.6-16.6-2.2-24.6-4.3-17-4.4-32.9-11.3-48.2-19.8-20.4-11.4-38.8-25.6-55.7-41.6-6.9-6.6-13.5-13.5-19.9-20.7-11.5-13-22.1-26.8-31.9-41.1-14.5-21.3-27.1-43.6-38.4-66.8-7-14.4-13.4-29-19.5-43.7-5.1-12.2-8-25.1-10.5-38-1.7-9.1-2.9-18.3-3.4-27.5-0.4-7.4-0.5-14.8-0.2-22.3 0.4-8.1 1.1-16.2 2.6-24.1 4.7-24.7 15-46.4 33.8-63.7 4.9-4.5 10-8.8 16.1-11.5 10.2-4.6 20.6-8.4 31.3-11.7 21.2-6.5 42.8-11 64.6-14.6 20.2-3.3 40.5-5.8 60.8-7.6 11.9-1 23.8-2.2 35.7-2.6 12.6-0.4 25.3-0.6 37.9-0.8v0.2c2.5 0.2 4.9 0 7.3 0 2 0.2 3.9 0 5.9 0 1.1 0 2.3 0 3.5 0.1h40.8c3.3 0 6.6 0 9.9-0.1 5 0.2 10.1 0.2 15.1 0 3.3 0 6.6 0 9.9 0.1h7.2c-10.5 11.5-17 26.7-17 43.4 0 3.2 0.3 6.9 1 11.1-0.1 0.3 0 0.5 0 0.7z m0 0M893.9 254s-123 17.9-123.8 18c-7.9 1.8-14.4 6.9-18.3 13.7-0.6 1.2-53.8 109.1-53.8 109.1-3.8 8.5-12.3 14.5-22.1 14.5-9.9 0-18.4-6-22.2-14.5 0 0-52.7-106.5-52.8-106.8-3.7-8.1-10.9-14.1-19.8-16-0.3-0.1-124-18-124-18-10.6-2.6-18.6-12.1-18.6-23.5 0-6.5 2.6-12.5 6.8-16.8 0 0 87.7-85.5 88-85.8 4.9-5.1 7.9-11.9 7.9-19.5 0-1.7-0.2-3.3-0.5-5-0.1-0.4-20.4-118.5-20.4-118.5s-0.5-3.3-0.5-4.9c0-13.4 10.9-24.2 24.3-24.2 3.2 0 6.3 0.7 9.1 1.8 0 0 110.1 58 111.9 58.8 3.3 1.3 6.8 2.1 10.5 2.1 3.6 0 7.1-0.8 10.2-2 2.1-0.8 111.4-58.7 112.1-58.9 2.9-1.2 6-1.9 9.2-1.9 13.4 0 24.3 10.9 24.3 24.2 0 1.3-21 123.9-21.2 125.2-0.1 1-0.3 2-0.3 3 0 7.5 3 14.2 7.7 19.3 0.4 0.5 87.8 85.5 87.8 85.5l0.3 0.3c4.3 4.4 7 10.3 7 17 0.2 11.7-7.9 21.4-18.8 23.8z"  horiz-adv-x="1024" />

    
    <glyph glyph-name="github" unicode="&#59425;" d="M498.894518 795.391604c-211.824383 0-409.482115-189.041494-409.482115-422.192601 0-186.567139 127.312594-344.783581 295.065226-400.602887 21.13025-3.916193 32.039717 9.17701 32.039717 20.307512 0 10.101055 1.176802 43.343157 1.019213 78.596056-117.448946-25.564235-141.394311 49.835012-141.394311 49.835012-19.225877 48.805566-46.503127 61.793368-46.503127 61.793368-38.293141 26.233478 3.13848 25.611308 3.13848 25.611308 42.361807-2.933819 64.779376-43.443441 64.779376-43.443441 37.669948-64.574714 98.842169-45.865607 122.912377-35.094286 3.815909 27.262924 14.764262 45.918819 26.823925 56.431244-93.796246 10.665921-192.323237 46.90017-192.323237 208.673623 0 46.071292 16.498766 83.747379 43.449581 113.332185-4.379751 10.665921-18.805298 53.544497 4.076852 111.732757 0 0 35.46063 11.336186 116.16265-43.296085 33.653471 9.330506 69.783343 14.022365 105.654318 14.174837 35.869952-0.153496 72.046896-4.844332 105.753579-14.174837 80.606853 54.631248 116.00813 43.296085 116.00813 43.296085 22.935362-58.18826 8.559956-101.120049 4.180206-111.732757 27.052123-29.584806 43.443441-67.260893 43.443441-113.332185 0-162.137751-98.798167-197.850114-192.799074-208.262254 15.151072-13.088086 28.65155-38.804794 28.65155-78.17957 0-56.484456-0.459464-101.94381-0.459464-115.854635 0-11.235902 7.573489-24.381293 29.014824-20.2543C825.753867 28.66920200000004 933.822165 186.89076 933.822165 373.29928700000005c0 233.155201-224.12657 422.192601-434.927647 422.192601L498.894518 795.391604z"  horiz-adv-x="1024" />

    
    <glyph glyph-name="todoceo" unicode="&#58883;" d="M914 194.78625c27.09375 57.465 42.375 121.4775 42.375 189.165 0 176.26125-103.10625 328.90125-252.255 400.655625-0.99375 0.496875-1.985625 0.99375-2.9775 1.389375C643.685 813.09 579.57875 828.375 512 828.375 266.988125 828.375 67.625 628.989375 67.625 383.95124999999996c0-176.16375 103.10625-328.80375 252.05625-400.558125 0.99375-0.496875 1.9875-0.99375 3.076875-1.389375C380.215625-45.19124999999997 444.321875-60.375 512-60.375c176.34 0 328.965 103.31625 400.711875 252.481875 0.495 0.894375 0.8925 1.786875 1.29 2.68125z m-13.19625 189.165c0-45.75375-8.038125-89.71875-22.625625-130.509375l-150.1425 150.159375-176.7375 176.75625 145.576875 145.59375c121.365-65.89875 203.92875-194.521875 203.92875-342zM512 226.84500000000003l-157.0875 157.10625 157.0875 157.10625 157.0875-157.10625-157.0875-157.10625z m0 545.95125c45.748125 0 89.709375-8.038125 130.59375-22.6275l-150.24375-150.159375-178.125-178.1475-145.18125 145.09875C234.636875 689.330625 363.74375 772.798125 512 772.798125zM123.19625 383.95124999999996c0 45.05625 7.74 88.228125 21.931875 128.424375l178.92-178.9425a25.824375 25.824375 0 0 1 8.634375-5.75625l140.11875-140.135625-145.775625-145.494375C205.76 107.94749999999999 123.19625 236.47125000000005 123.19625 383.95124999999996zM512-4.8956249999999955a388.035 388.035 0 0 0-130.693125 22.6275l150.34125 150.159375 176.7375 176.75625 145.57875-145.59375C788.170625 77.67562499999997 659.564375-4.8937499999999545 512-4.8937499999999545zM665.69375 153.3225l21.234375 21.234375c-3.25875 6.6375-6.515625 13.03125-8.686875 20.02875-2.775 9.530625-4.2225 19.425-4.584375 29.4375-17.37375-7.96125-35.713125-15.200625-52.725-20.146875-2.533125-0.84375-4.82625-0.24375-6.515625 1.4475-0.84375 0.84375-1.5675 2.05125-2.05125 3.73875-0.72375 2.655-0.24 5.068125 1.449375 6.7575 0.96375 0.965625 2.17125 1.6875 3.860625 2.17125 18.0975 4.82625 37.7625 11.94375 56.825625 20.14875 2.895 23.165625 13.513125 46.57125 30.163125 70.45875l0.601875 0.60375c2.293125 2.293125 5.55 3.136875 8.80875 0.84375 0.60375-0.36 0.965625-0.721875 1.3275-1.08375 2.413125-2.413125 2.53125-5.671875 0.601875-8.085-13.513125-19.06125-23.285625-37.5225-27.38625-56.34375 11.701875 5.671875 23.04375 11.70375 33.05625 17.615625 3.740625 2.293125 7.843125 1.5675 10.498125-1.0875 1.6875-1.6875 2.775-3.980625 3.015-6.875625 0.84375-8.566875 2.413125-17.615625 4.464375-26.90625l26.90625 26.90625c2.17125 2.17125 5.30625 1.4475 7.72125-0.965625 2.533125-2.533125 3.136875-5.55 0.965625-7.72125l-31.8525-31.850625c2.533125-8.085 5.55-15.92625 8.92875-22.92375 1.3275-2.775 1.085625-4.94625-0.84375-6.8775-0.60375-0.60375-1.329375-1.0875-2.293125-1.569375-3.016875-1.5675-5.671875-1.5675-7.60125 0.361875-0.60375 0.60375-1.2075 1.449375-1.689375 2.655-2.413125 5.791875-4.70625 11.94375-6.6375 18.2175l-58.875-58.875c-2.293125-2.293125-5.31-1.69125-7.843125 0.84375-2.413125 2.413125-3.136875 5.55-0.84375 7.84125z m31.24875 31.24875l32.454375 32.45625c-2.413125 9.650625-4.2225 19.18125-5.308125 28.23-0.24375 1.449375-0.48375 2.413125-0.84375 2.775-0.605625 0.60375-1.69125 0.48375-3.620625-0.72375a792.93375 792.93375 0 0 0-32.938125-17.251875c-0.72375-9.894375 0.60375-19.906875 3.49875-29.3175 1.689375-5.55 4.2225-10.738125 6.7575-16.168125z m55.86-25.215l-37.400625-37.4025c-7.239375-7.2375-13.635-7.359375-20.7525-0.241875l-11.461875 11.461875c-2.413125 2.413125-1.6875 5.55 1.205625 8.446875 2.775 2.775 6.03375 3.61875 8.325 1.325625l9.7725-9.7725c2.655-2.653125 4.82625-2.17125 7.36125 0.361875l76.854375 76.85625c2.53125 2.53125 3.015 4.704375 0.361875 7.3575l-9.774375 9.7725c-2.29125 2.293125-1.4475 5.55 1.3275 8.325 2.896875 2.896875 6.03375 3.61875 8.446875 1.2075l11.46-11.461875c7.119375-7.119375 6.999375-13.513125-0.24-20.7525l-36.075-36.075 8.686875-8.685c2.533125-2.535 2.17125-5.55-0.84375-8.566875-3.136875-3.136875-6.03375-3.37875-8.566875-0.84375l-8.686875 8.686875zM374.38625 153.89437499999997l29.92125 29.92125c-10.49625 6.635625-21.1125 12.909375-32.334375 18.0975-1.6875-6.515625-3.256875-12.909375-4.3425-18.82125-0.241875-0.965625-0.72375-1.689375-1.3275-2.293125-1.3275-1.3275-3.49875-1.809375-5.67-1.085625-1.3275 0.60375-2.293125 1.0875-3.016875 1.809375-1.4475 1.4475-1.809375 3.25875-1.3275 5.188125 2.173125 13.755 6.27375 30.163125 11.221875 43.55625 0.481875 1.205625 1.085625 2.29125 1.809375 3.015 1.4475 1.4475 3.61875 1.93125 6.031875 0.965625 1.3275-0.361875 2.533125-1.0875 3.49875-2.05125 1.4475-1.4475 2.17125-3.61875 1.0875-5.911875a202.425 202.425 0 0 1-4.58625-13.03125c17.9775-8.325 37.280625-19.425 52.00125-29.075625 0.481875-0.241875 0.96375-0.72375 1.325625-1.0875 1.93125-1.929375 2.173125-4.584375 0.24375-7.72125-0.36375-0.601875-0.845625-1.085625-1.2075-1.4475-2.293125-2.29125-4.948125-2.533125-7.119375-1.085625-1.6875 1.2075-3.49875 2.533125-5.308125 3.8625l-80.475-80.475c-6.875625-6.8775-13.39125-6.15375-20.50875 0.965625l-26.1825 26.180625c-7.1175 7.1175-7.84125 13.633125-0.96375 20.510625l38.85 38.85c6.755625 6.755625 13.63125 5.911875 20.630625-1.0875l27.75-27.75z m-8.203125-8.205l-25.940625 25.940625c-2.653125 2.653125-4.584375 2.895-6.755625 0.72375l-14.59875-14.59875 29.68125-29.68125 17.61375 17.615625z m-25.940625-25.93875l-29.679375 29.679375-13.03125-13.03125c-2.17125-2.17125-1.929375-4.100625 0.725625-6.755625l22.078125-22.078125c2.655-2.655 4.82625-2.896875 6.8775-0.84375l13.03125 13.029375z m30.525 129.4575l-93.744375-93.74625c-7.36125-7.359375-13.875-7.1175-21.35625 0.361875l-20.8725 20.8725c-7.48125 7.48125-7.48125 14.236875-0.361875 21.35625l67.32375 67.321875c8.565 8.566875 16.28625 6.8775 25.335-2.17125 3.37875-3.37875 6.7575-7.48125 9.04875-11.22 1.689375-2.413125 1.2075-4.82625-0.96375-6.9975-0.48375-0.48375-0.965625-0.965625-1.569375-1.3275-2.895-2.173125-5.308125-1.93125-6.9975-0.241875-0.361875 0.361875-0.60375 0.60375-0.84375 1.0875-1.93125 2.893125-3.9825 5.91-6.515625 8.443125-4.584375 4.58625-6.6375 4.948125-10.858125 0.72375l-63.22125-63.219375c-2.533125-2.533125-1.93125-4.82625 0.361875-7.119375l16.53-16.528125c2.653125-2.655 4.70625-2.775 7.2375-0.241875l92.056875 92.056875c2.293125 2.29125 5.55 1.6875 8.445-1.2075 2.775-2.775 3.25875-5.911875 0.965625-8.203125zM742.14125 630.4649999999999l38.12625-38.12625c6.755625-6.755625 7.48125-13.03125 0.72375-19.786875l-10.49625-10.49625c-2.413125-2.413125-5.671875-1.5675-8.446875 1.2075-2.895 2.895-3.61875 6.031875-1.205625 8.445l9.290625 9.290625c2.53125 2.53125 1.809375 4.4625-0.72375 6.9975l-77.458125 77.45625c-2.533125 2.535-4.584375 3.37875-7.1175 0.84375l-9.290625-9.28875c-2.413125-2.413125-5.55-1.6875-8.445 1.205625-2.896875 2.896875-3.61875 6.03375-1.2075 8.446875l10.49625 10.49625c6.7575 6.755625 12.909375 6.15375 19.786875-0.72375l36.556875-36.556875 5.55 5.55c2.413125 2.413125 5.308125 2.413125 8.445-0.72375 3.37875-3.37875 3.37875-6.27375 0.965625-8.686875l-5.55-5.55z m8.325-52.725l-69.253125 69.253125c-1.93125 1.93125-1.085625 4.70625 0.84375 6.6375 1.93125 1.929375 4.82625 2.895 6.7575 0.96375l69.253125-69.253125c1.809375-1.809375 0.965625-4.82625-0.965625-6.755625-1.93125-1.93125-4.82625-2.655-6.635625-0.84375z m-67.925625 55.378125l54.1725-54.170625c6.27375-6.27375 6.9975-11.58375 1.325625-17.25375l-7.72125-7.72125c-5.67-5.67-10.978125-4.94625-17.251875 1.3275l-54.1725 54.170625c-6.27375 6.27375-6.9975 11.58375-1.3275 17.25375l7.72125 7.72125c5.671875 5.67 10.98 4.94625 17.25375-1.3275z m-14.116875-18.94125l49.22625-49.22625c2.413125-2.41125 4.1025-2.895 6.031875-0.96375l4.344375 4.3425c1.93125 1.93125 1.4475 3.61875-0.965625 6.03375l-49.22625 49.224375c-2.413125 2.413125-4.100625 2.895-6.031875 0.965625l-4.3425-4.344375c-1.93125-1.93125-1.449375-3.61875 0.96375-6.031875z m-25.696875-0.84375l74.0775-74.08125c6.8775-6.875625 7.36125-12.6675 1.0875-18.94125l-24.25125-24.25125c-6.27375-6.27375-12.065625-5.79-18.943125 1.0875l-74.079375 74.0775c-6.875625 6.8775-7.479375 12.789375-1.205625 19.063125l24.25125 24.25125c6.27375 6.27375 12.185625 5.67 19.063125-1.2075z m23.645625-57.1875l34.7475-34.749375 6.27375 6.27375c2.293125 2.293125 1.81125 3.9825-0.601875 6.39375L675.543125 565.3125l-9.16875-9.16875z m-17.735625-17.7375l31.00875-31.006875c2.653125-2.655 4.3425-3.136875 6.875625-0.60375l7.239375 7.239375-34.7475 34.7475-10.37625-10.37625z m-8.565 8.566875l10.37625 10.37625-33.058125 33.05625-7.239375-7.2375c-2.533125-2.533125-1.93125-4.344375 0.60375-6.8775l29.3175-29.3175z m-15.3225 50.79375l33.05625-33.058125 9.170625 9.16875-29.4375 29.4375c-2.413125 2.415-4.224375 3.01875-6.515625 0.725625l-6.27375-6.27375zM272.335625 620.37l92.780625-92.77875c7.84125-7.843125 7.1175-15.564375-4.82625-27.508125-4.70625-4.70625-10.49625-9.5325-14.9625-12.3075-2.53125-1.5675-5.55-1.205625-7.719375 0.965625-0.48375 0.481875-0.84375 0.84375-1.2075 1.4475-2.05125 3.016875-1.93125 5.791875 0.12 7.843125 0.361875 0.361875 0.725625 0.72375 1.2075 0.965625 3.860625 2.41125 8.325 5.911875 11.581875 9.16875 6.27375 6.27375 6.39375 8.566875 2.896875 12.065625l-90.005625 90.00375c-2.533125 2.535-1.809375 6.15375 1.085625 9.04875 3.136875 3.136875 6.515625 3.61875 9.04875 1.0875z m127.28625-24.249375c1.6875-0.241875 3.015-0.84375 3.980625-1.81125 1.689375-1.6875 2.293125-4.2225 1.93125-6.9975-0.48375-1.93125-1.2075-3.376875-2.293125-4.4625-1.5675-1.569375-3.61875-2.173125-5.79-1.93125-27.14625 4.70625-53.086875 15.684375-77.21625 30.163125-0.60375 0.361875-0.965625 0.72375-1.449375 1.205625-2.29125 2.293125-2.17125 5.308125-0.361875 8.083125 0.361875 0.60375 0.84375 1.0875 1.3275 1.569375 2.293125 2.29125 5.31 2.653125 8.446875 0.72375 21.71625-13.27125 47.053125-22.92375 71.424375-26.5425z m-139.471875-34.5075c2.895 2.173125 6.27375 2.655 8.566875 0.36375 0.361875-0.36375 0.72375-0.725625 0.96375-1.2075 15.80625-24.009375 28.715625-51.155625 32.818125-74.803125 0.481875-2.413125-0.361875-4.70625-1.93125-6.27375-1.085625-1.085625-2.533125-1.809375-4.2225-2.293125-2.413125-0.481875-4.82625 0.24375-6.39375 1.81125-0.965625 0.96375-1.569375 2.29125-1.93125 3.860625-3.61875 22.44-15.080625 48.13875-29.92125 69.253125-1.93125 2.895-1.4475 6.031875 0.84375 8.325 0.36375 0.361875 0.725625 0.72375 1.2075 0.96375z"  horiz-adv-x="1024" />

    
    <glyph glyph-name="arm" unicode="&#59426;" d="M568.798379 858.882402l324.803962-187.528406a115.272045 115.272045 0 0 0 57.636023-99.827512v-375.052968a115.272045 115.272045 0 0 0-57.636023-99.829433l-324.803962-187.524563a115.272045 115.272045 0 0 0-115.272045 0L128.72045 96.64408300000002a115.272045 115.272045 0 0 0-57.636022 99.829433V571.526484a115.272045 115.272045 0 0 0 57.636022 99.829433l324.805884 187.524563a115.272045 115.272045 0 0 0 115.272045 0z m-56.36803-101.700683L207.489681 147.30230400000005h609.879415l-525.21594 48.437313L512.430349 757.1817189999999z m157.80743-414.814139L709.931707 250.47654799999998h62.485134l-180.594792 402.113081L404.612563 250.47654799999998h61.505321l42.145381 91.891032h161.972592z m-23.281111 53.662979h-114.924308l58.809876 128.647445 56.114432-128.647445z"  horiz-adv-x="1024" />

    
    <glyph glyph-name="armors" unicode="&#58885;" d="M509.305263 892.928L141.406316-44.77978900000005l877.20421-80.902737H0zM772.870737 200.62989500000003H502.346105L431.952842 47.15789500000005H329.229474l312.677052 671.595789L943.535158 47.15789500000005h-104.367158l-66.297263 153.472z m-38.878316 89.626947L640.269474 505.128421 542.046316 290.256842h191.946105z m270.928842 155.526737h92.085895v-35.610947c16.916211 17.738105 31.919158 29.877895 45.022316 36.426105 13.365895 6.824421 29.190737 10.233263 47.467789 10.233263 24.286316 0 49.657263-7.915789 76.126316-23.740632l-42.152421-84.304842c-17.461895 12.550737-34.512842 18.822737-51.159579 18.822737-50.202947 0-75.304421-37.928421-75.304421-113.771789V47.15789500000005h-92.085895V445.776842z m326.184421 0h92.085895v-36.837053c17.731368 18.553263 32.875789 31.104 45.426526 37.652211 13.372632 6.824421 30.147368 10.233263 50.337684 10.233263 45.022316 0 80.626526-19.644632 106.819369-58.933895 28.921263 39.289263 68.075789 58.933895 117.456842 58.933895 89.768421 0 134.649263-54.433684 134.649263-163.301053V47.15789500000005h-92.496842V268.57094700000005c0 38.197895-4.634947 65.212632-13.911579 81.030737-9.552842 16.101053-25.236211 24.144842-47.063579 24.144842-25.377684 0-43.856842-9.546105-55.457684-28.645052-11.594105-19.098947-17.394526-49.792-17.394526-92.085895V47.15789500000005h-92.496842V267.33810500000004c0 70.938947-20.459789 106.408421-61.386106 106.408421-25.916632 0-44.813474-9.680842-56.683789-29.056-11.863579-19.368421-17.798737-49.926737-17.798737-91.674947V47.15789500000005h-92.085895V445.776842z m1180.314948 0h92.085894v-35.610947c16.909474 17.738105 31.919158 29.877895 45.015579 36.426105 13.372632 6.824421 29.197474 10.233263 47.474527 10.233263 24.286316 0 49.657263-7.915789 76.126315-23.740632l-42.159158-84.304842c-17.461895 12.550737-34.512842 18.822737-51.152842 18.822737-50.202947 0-75.304421-37.928421-75.304421-113.771789V47.15789500000005h-92.085894V445.776842z m545.138526-67.941053l-76.126316-40.515368c-12.005053 24.555789-26.873263 36.830316-44.604631 36.830316-8.461474 0-15.690105-2.795789-21.692632-8.387369-6.002526-5.591579-9.007158-12.752842-9.007158-21.490526 0-15.279158 17.738105-30.416842 53.207579-45.426526 48.842105-21.005474 81.717895-40.380632 98.627368-58.112 16.922947-17.738105 25.377684-41.606737 25.377685-71.626106 0-38.467368-14.187789-70.662737-42.563369-96.586105-27.553684-24.555789-60.840421-36.830316-99.86021-36.830316-66.842947 0-114.182737 32.606316-142.012632 97.818948l78.578526 36.419368c10.913684-19.098947 19.233684-31.238737 24.966737-36.426105 11.183158-10.368 24.555789-15.548632 40.104421-15.548632 31.104 0 46.659368 14.187789 46.659369 42.563369 0 16.370526-12.005053 31.649684-36.015158 45.837473a1299.489684 1299.489684 0 0 1-27.829895 13.500632 2543.144421 2543.144421 0 0 0-28.240842 13.507368c-26.738526 13.096421-45.561263 26.192842-56.481684 39.289264-13.911579 16.64-20.870737 38.063158-20.870737 64.256 0 34.654316 11.870316 63.299368 35.610947 85.948631 24.279579 22.642526 53.746526 33.967158 88.400842 33.967158 51.018105 0 88.939789-26.327579 113.77179-78.989474zM2415.380211 453.106526c12.968421 0 23.464421-9.512421 23.464421-21.26821 0-66.155789-9.256421-128.660211-27.506527-185.849263-15.770947-49.502316-37.995789-94.275368-66.021052-133.146948-23.989895-33.199158-51.819789-61.264842-80.437895-81.050947-27.823158-19.260632-54.231579-29.419789-76.321684-29.41979-22.096842 0-48.559158 10.219789-76.39579 29.655579-28.604632 19.907368-56.373895 48.026947-80.357052 81.347369-28.025263 38.925474-50.256842 83.705263-66.02779 133.146947-18.256842 57.067789-27.506526 119.444211-27.506526 185.317053 0 11.755789 10.496 21.268211 23.464421 21.26821 69.153684 0 123.055158 15.36 156.106105 28.234106 35.321263 13.763368 55.073684 27.769263 55.983158 28.416a24.980211 24.980211 0 0 0 29.527579 0c0.916211-0.646737 20.661895-14.652632 55.989895-28.416 32.983579-12.874105 86.885053-28.234105 156.038737-28.234106zM2325.706105 378.61052600000005c-41.815579 0-74.408421 9.249684-94.349473 17.00379-21.355789 8.286316-33.300211 16.720842-33.852632 17.111579a15.157895 15.157895 0 0 1-17.852632 0c-0.552421-0.390737-12.496842-8.825263-33.852631-17.111579-19.981474-7.754105-52.574316-17.003789-94.389895-17.00379-7.841684 0-14.187789-5.726316-14.187789-12.813473 0-39.666526 5.591579-77.237895 16.633263-111.609264 9.532632-29.776842 22.972632-56.744421 39.922526-80.195368 14.504421-20.062316 31.292632-36.998737 48.592842-48.990316 16.828632-11.701895 32.828632-17.859368 46.18779-17.859368 13.359158 0 29.318737 6.117053 46.147368 17.717895 17.306947 11.924211 34.128842 28.820211 48.64 48.815157 16.943158 23.410526 30.383158 50.378105 39.91579 80.195369 11.034947 34.438737 16.633263 72.084211 16.633263 111.925895 0 7.080421-6.346105 12.813474-14.18779 12.813473z"  horiz-adv-x="3085" />

    


  </font>
</defs>
</svg>
